# xmcd CD database file
#
# Track frame offsets:
#	150
#	20805
#	32680
#	46737
#	61035
#	80462
#
# Disc length: 1350 seconds
#
# Revision: 1
# Processed by: cddbd v1.5PL3 Copyright (c) Steve Scherf et al.
# Submitted via: CDex 1.40Release
#
DISCID=3f054406
DTITLE=Ian Robertson - Big Town Dreams
DYEAR=1997
DGENRE=Country
TTITLE0=Narrabri Memories
TTITLE1=Big Town Dreams
TTITLE2=What Will Be Will Be
TTITLE3=Armed And Dangerous
TTITLE4=Your Love To Me
TTITLE5=Your The Reason Why
EXTD=YEAR: 1997 ID3G: 2
EXTT0=
EXTT1=
EXTT2=
EXTT3=
EXTT4=
EXTT5=
PLAYORDER=
